<svg width="130" height="24" viewBox="0 0 130 24" fill="none" xmlns="http://www.w3.org/2000/svg">
<path d="M7.08 23V5.3H0.12V2H17.94V5.3H10.98V23H7.08ZM29.5969 6.8C30.8769 6.8 32.0169 7.05 33.0169 7.55C34.0369 8.05 34.8369 8.82 35.4169 9.86C35.9969 10.88 36.2869 12.2 36.2869 13.82V23H32.5369V14.3C32.5369 12.88 32.1969 11.82 31.5169 11.12C30.8569 10.42 29.9269 10.07 28.7269 10.07C27.8469 10.07 27.0669 10.25 26.3869 10.61C25.7069 10.97 25.1769 11.51 24.7969 12.23C24.4369 12.93 24.2569 13.82 24.2569 14.9V23H20.5069V0.739999H24.2569V11.3L23.4469 9.98C24.0069 8.96 24.8169 8.18 25.8769 7.64C26.9569 7.08 28.1969 6.8 29.5969 6.8ZM41.044 23V6.98H44.614V11.39L44.194 10.1C44.674 9.02 45.424 8.2 46.444 7.64C47.484 7.08 48.774 6.8 50.314 6.8V10.37C50.154 10.33 50.004 10.31 49.864 10.31C49.724 10.29 49.584 10.28 49.444 10.28C48.024 10.28 46.894 10.7 46.054 11.54C45.214 12.36 44.794 13.59 44.794 15.23V23H41.044ZM60.8787 23.21C59.0987 23.21 57.5387 22.86 56.1987 22.16C54.8787 21.44 53.8487 20.46 53.1087 19.22C52.3887 17.98 52.0287 16.57 52.0287 14.99C52.0287 13.39 52.3787 11.98 53.0787 10.76C53.7987 9.52 54.7787 8.55 56.0187 7.85C57.2787 7.15 58.7087 6.8 60.3087 6.8C61.8687 6.8 63.2587 7.14 64.4787 7.82C65.6987 8.5 66.6587 9.46 67.3587 10.7C68.0587 11.94 68.4087 13.4 68.4087 15.08C68.4087 15.24 68.3987 15.42 68.3787 15.62C68.3787 15.82 68.3687 16.01 68.3487 16.19H54.9987V13.7H66.3687L64.8987 14.48C64.9187 13.56 64.7287 12.75 64.3287 12.05C63.9287 11.35 63.3787 10.8 62.6787 10.4C61.9987 10 61.2087 9.8 60.3087 9.8C59.3887 9.8 58.5787 10 57.8787 10.4C57.1987 10.8 56.6587 11.36 56.2587 12.08C55.8787 12.78 55.6887 13.61 55.6887 14.57V15.17C55.6887 16.13 55.9087 16.98 56.3487 17.72C56.7887 18.46 57.4087 19.03 58.2087 19.43C59.0087 19.83 59.9287 20.03 60.9687 20.03C61.8687 20.03 62.6787 19.89 63.3987 19.61C64.1187 19.33 64.7587 18.89 65.3187 18.29L67.3287 20.6C66.6087 21.44 65.6987 22.09 64.5987 22.55C63.5187 22.99 62.2787 23.21 60.8787 23.21ZM81.4413 23V19.76L81.2313 19.07V13.4C81.2313 12.3 80.9013 11.45 80.2413 10.85C79.5813 10.23 78.5813 9.92 77.2413 9.92C76.3413 9.92 75.4513 10.06 74.5713 10.34C73.7113 10.62 72.9813 11.01 72.3813 11.51L70.9113 8.78C71.7713 8.12 72.7913 7.63 73.9713 7.31C75.1713 6.97 76.4113 6.8 77.6913 6.8C80.0113 6.8 81.8013 7.36 83.0613 8.48C84.3413 9.58 84.9813 11.29 84.9813 13.61V23H81.4413ZM76.4013 23.21C75.2013 23.21 74.1513 23.01 73.2513 22.61C72.3513 22.19 71.6513 21.62 71.1513 20.9C70.6713 20.16 70.4313 19.33 70.4313 18.41C70.4313 17.51 70.6413 16.7 71.0613 15.98C71.5013 15.26 72.2113 14.69 73.1913 14.27C74.1713 13.85 75.4713 13.64 77.0913 13.64H81.7413V16.13H77.3613C76.0813 16.13 75.2213 16.34 74.7813 16.76C74.3413 17.16 74.1213 17.66 74.1213 18.26C74.1213 18.94 74.3913 19.48 74.9313 19.88C75.4713 20.28 76.2213 20.48 77.1813 20.48C78.1013 20.48 78.9213 20.27 79.6413 19.85C80.3813 19.43 80.9113 18.81 81.2313 17.99L81.8613 20.24C81.5013 21.18 80.8513 21.91 79.9113 22.43C78.9913 22.95 77.8213 23.21 76.4013 23.21ZM96.6033 23.21C95.0633 23.21 93.6733 22.87 92.4333 22.19C91.2133 21.49 90.2533 20.53 89.5533 19.31C88.8533 18.09 88.5033 16.65 88.5033 14.99C88.5033 13.33 88.8533 11.89 89.5533 10.67C90.2533 9.45 91.2133 8.5 92.4333 7.82C93.6733 7.14 95.0633 6.8 96.6033 6.8C97.9433 6.8 99.1433 7.1 100.203 7.7C101.263 8.28 102.103 9.17 102.723 10.37C103.343 11.57 103.653 13.11 103.653 14.99C103.653 16.85 103.353 18.39 102.753 19.61C102.153 20.81 101.323 21.71 100.263 22.31C99.2033 22.91 97.9833 23.21 96.6033 23.21ZM97.0533 20C97.9533 20 98.7533 19.8 99.4533 19.4C100.173 19 100.743 18.42 101.163 17.66C101.603 16.9 101.823 16.01 101.823 14.99C101.823 13.95 101.603 13.06 101.163 12.32C100.743 11.56 100.173 10.98 99.4533 10.58C98.7533 10.18 97.9533 9.98 97.0533 9.98C96.1533 9.98 95.3433 10.18 94.6233 10.58C93.9233 10.98 93.3533 11.56 92.9133 12.32C92.4933 13.06 92.2833 13.95 92.2833 14.99C92.2833 16.01 92.4933 16.9 92.9133 17.66C93.3533 18.42 93.9233 19 94.6233 19.4C95.3433 19.8 96.1533 20 97.0533 20ZM101.913 23V19.22L102.063 14.96L101.763 10.7V0.739999H105.483V23H101.913ZM115.369 23.21C114.029 23.21 112.739 23.04 111.499 22.7C110.279 22.34 109.309 21.91 108.589 21.41L110.029 18.56C110.749 19.02 111.609 19.4 112.609 19.7C113.609 20 114.609 20.15 115.609 20.15C116.789 20.15 117.639 19.99 118.159 19.67C118.699 19.35 118.969 18.92 118.969 18.38C118.969 17.94 118.789 17.61 118.429 17.39C118.069 17.15 117.599 16.97 117.019 16.85C116.439 16.73 115.789 16.62 115.069 16.52C114.369 16.42 113.659 16.29 112.939 16.13C112.239 15.95 111.599 15.7 111.019 15.38C110.439 15.04 109.969 14.59 109.609 14.03C109.249 13.47 109.069 12.73 109.069 11.81C109.069 10.79 109.359 9.91 109.939 9.17C110.519 8.41 111.329 7.83 112.369 7.43C113.429 7.01 114.679 6.8 116.119 6.8C117.199 6.8 118.289 6.92 119.389 7.16C120.489 7.4 121.399 7.74 122.119 8.18L120.679 11.03C119.919 10.57 119.149 10.26 118.369 10.1C117.609 9.92 116.849 9.83 116.089 9.83C114.949 9.83 114.099 10 113.539 10.34C112.999 10.68 112.729 11.11 112.729 11.63C112.729 12.11 112.909 12.47 113.269 12.71C113.629 12.95 114.099 13.14 114.679 13.28C115.259 13.42 115.899 13.54 116.599 13.64C117.319 13.72 118.029 13.85 118.729 14.03C119.429 14.21 120.069 14.46 120.649 14.78C121.249 15.08 121.729 15.51 122.089 16.07C122.449 16.63 122.629 17.36 122.629 18.26C122.629 19.26 122.329 20.13 121.729 20.87C121.149 21.61 120.319 22.19 119.239 22.61C118.159 23.01 116.869 23.21 115.369 23.21ZM127.058 23.21C126.378 23.21 125.798 22.98 125.318 22.52C124.838 22.04 124.598 21.44 124.598 20.72C124.598 19.96 124.838 19.36 125.318 18.92C125.798 18.46 126.378 18.23 127.058 18.23C127.738 18.23 128.318 18.46 128.798 18.92C129.278 19.36 129.518 19.96 129.518 20.72C129.518 21.44 129.278 22.04 128.798 22.52C128.318 22.98 127.738 23.21 127.058 23.21Z" fill="black"/>
</svg>