<svg width="126" height="24" viewBox="0 0 126 24" fill="none" xmlns="http://www.w3.org/2000/svg">
<path d="M6.96 9.83V17.87C6.96 18.43 7.09 18.84 7.35 19.1C7.63 19.34 8.09 19.46 8.73 19.46H10.68V23H8.04C4.5 23 2.73 21.28 2.73 17.84V9.83H0.75V6.38H2.73V2.27H6.96V6.38H10.68V9.83H6.96ZM23.0609 6.14C24.3209 6.14 25.4409 6.42 26.4209 6.98C27.4009 7.52 28.1609 8.33 28.7009 9.41C29.2609 10.47 29.5409 11.75 29.5409 13.25V23H25.3409V13.82C25.3409 12.5 25.0109 11.49 24.3509 10.79C23.6909 10.07 22.7909 9.71 21.6509 9.71C20.4909 9.71 19.5709 10.07 18.8909 10.79C18.2309 11.49 17.9009 12.5 17.9009 13.82V23H13.7009V0.8H17.9009V8.45C18.4409 7.73 19.1609 7.17 20.0609 6.77C20.9609 6.35 21.9609 6.14 23.0609 6.14ZM37.7348 8.96C38.2748 8.08 38.9748 7.39 39.8348 6.89C40.7148 6.39 41.7148 6.14 42.8348 6.14V10.55H41.7248C40.4048 10.55 39.4048 10.86 38.7248 11.48C38.0648 12.1 37.7348 13.18 37.7348 14.72V23H33.5348V6.38H37.7348V8.96ZM61.1138 14.33C61.1138 14.93 61.0738 15.47 60.9938 15.95H48.8438C48.9438 17.15 49.3638 18.09 50.1038 18.77C50.8438 19.45 51.7538 19.79 52.8338 19.79C54.3938 19.79 55.5038 19.12 56.1638 17.78H60.6938C60.2138 19.38 59.2938 20.7 57.9338 21.74C56.5738 22.76 54.9038 23.27 52.9238 23.27C51.3238 23.27 49.8838 22.92 48.6038 22.22C47.3438 21.5 46.3538 20.49 45.6338 19.19C44.9338 17.89 44.5837 16.39 44.5837 14.69C44.5837 12.97 44.9338 11.46 45.6338 10.16C46.3338 8.86 47.3138 7.86 48.5738 7.16C49.8338 6.46 51.2838 6.11 52.9238 6.11C54.5038 6.11 55.9138 6.45 57.1538 7.13C58.4138 7.81 59.3838 8.78 60.0638 10.04C60.7638 11.28 61.1138 12.71 61.1138 14.33ZM56.7638 13.13C56.7438 12.05 56.3538 11.19 55.5938 10.55C54.8338 9.89 53.9038 9.56 52.8038 9.56C51.7638 9.56 50.8838 9.88 50.1638 10.52C49.4638 11.14 49.0338 12.01 48.8738 13.13H56.7638ZM63.0994 14.63C63.0994 12.95 63.4294 11.46 64.0894 10.16C64.7694 8.86 65.6794 7.86 66.8194 7.16C67.9794 6.46 69.2694 6.11 70.6894 6.11C71.9294 6.11 73.0094 6.36 73.9294 6.86C74.8694 7.36 75.6194 7.99 76.1794 8.75V6.38H80.4094V23H76.1794V20.57C75.6394 21.35 74.8894 22 73.9294 22.52C72.9894 23.02 71.8994 23.27 70.6594 23.27C69.2594 23.27 67.9794 22.91 66.8194 22.19C65.6794 21.47 64.7694 20.46 64.0894 19.16C63.4294 17.84 63.0994 16.33 63.0994 14.63ZM76.1794 14.69C76.1794 13.67 75.9794 12.8 75.5794 12.08C75.1794 11.34 74.6394 10.78 73.9594 10.4C73.2794 10 72.5494 9.8 71.7694 9.8C70.9894 9.8 70.2694 9.99 69.6094 10.37C68.9494 10.75 68.4094 11.31 67.9894 12.05C67.5894 12.77 67.3894 13.63 67.3894 14.63C67.3894 15.63 67.5894 16.51 67.9894 17.27C68.4094 18.01 68.9494 18.58 69.6094 18.98C70.2894 19.38 71.0094 19.58 71.7694 19.58C72.5494 19.58 73.2794 19.39 73.9594 19.01C74.6394 18.61 75.1794 18.05 75.5794 17.33C75.9794 16.59 76.1794 15.71 76.1794 14.69ZM83.4314 14.63C83.4314 12.95 83.7614 11.46 84.4214 10.16C85.1014 8.86 86.0214 7.86 87.1814 7.16C88.3414 6.46 89.6314 6.11 91.0514 6.11C92.1314 6.11 93.1614 6.35 94.1414 6.83C95.1214 7.29 95.9014 7.91 96.4814 8.69V0.8H100.741V23H96.4814V20.54C95.9614 21.36 95.2314 22.02 94.2914 22.52C93.3514 23.02 92.2614 23.27 91.0214 23.27C89.6214 23.27 88.3414 22.91 87.1814 22.19C86.0214 21.47 85.1014 20.46 84.4214 19.16C83.7614 17.84 83.4314 16.33 83.4314 14.63ZM96.5114 14.69C96.5114 13.67 96.3114 12.8 95.9114 12.08C95.5114 11.34 94.9714 10.78 94.2914 10.4C93.6114 10 92.8814 9.8 92.1014 9.8C91.3214 9.8 90.6014 9.99 89.9414 10.37C89.2814 10.75 88.7414 11.31 88.3214 12.05C87.9214 12.77 87.7214 13.63 87.7214 14.63C87.7214 15.63 87.9214 16.51 88.3214 17.27C88.7414 18.01 89.2814 18.58 89.9414 18.98C90.6214 19.38 91.3414 19.58 92.1014 19.58C92.8814 19.58 93.6114 19.39 94.2914 19.01C94.9714 18.61 95.5114 18.05 95.9114 17.33C96.3114 16.59 96.5114 15.71 96.5114 14.69ZM111.203 23.27C109.843 23.27 108.623 23.03 107.543 22.55C106.463 22.05 105.603 21.38 104.963 20.54C104.343 19.7 104.003 18.77 103.943 17.75H108.173C108.253 18.39 108.563 18.92 109.103 19.34C109.663 19.76 110.353 19.97 111.173 19.97C111.973 19.97 112.593 19.81 113.033 19.49C113.493 19.17 113.723 18.76 113.723 18.26C113.723 17.72 113.443 17.32 112.883 17.06C112.343 16.78 111.473 16.48 110.273 16.16C109.033 15.86 108.013 15.55 107.213 15.23C106.433 14.91 105.753 14.42 105.173 13.76C104.613 13.1 104.333 12.21 104.333 11.09C104.333 10.17 104.593 9.33 105.113 8.57C105.653 7.81 106.413 7.21 107.393 6.77C108.393 6.33 109.563 6.11 110.903 6.11C112.883 6.11 114.463 6.61 115.643 7.61C116.823 8.59 117.473 9.92 117.593 11.6H113.573C113.513 10.94 113.233 10.42 112.733 10.04C112.253 9.64 111.603 9.44 110.783 9.44C110.023 9.44 109.433 9.58 109.013 9.86C108.613 10.14 108.413 10.53 108.413 11.03C108.413 11.59 108.693 12.02 109.253 12.32C109.813 12.6 110.683 12.89 111.863 13.19C113.063 13.49 114.053 13.8 114.833 14.12C115.613 14.44 116.283 14.94 116.843 15.62C117.423 16.28 117.723 17.16 117.743 18.26C117.743 19.22 117.473 20.08 116.933 20.84C116.413 21.6 115.653 22.2 114.653 22.64C113.673 23.06 112.523 23.27 111.203 23.27ZM123.051 23.21C122.291 23.21 121.661 22.98 121.161 22.52C120.681 22.04 120.441 21.45 120.441 20.75C120.441 20.05 120.681 19.47 121.161 19.01C121.661 18.53 122.291 18.29 123.051 18.29C123.791 18.29 124.401 18.53 124.881 19.01C125.361 19.47 125.601 20.05 125.601 20.75C125.601 21.45 125.361 22.04 124.881 22.52C124.401 22.98 123.791 23.21 123.051 23.21Z" fill="black"/>
</svg>
